# xmcd
#
# Track frame offsets:
#	187
#	19235
#	45530
#	72217
#	102362
#
# Disc length: 1565 seconds
# Revision: 0
# Processed by: cddbd v1.5.2PL0 Copyright (c) Steve Scherf et al.
# Submitted via: dBpowerAMP V12.0
#
DISCID=3b061b05
DTITLE=Olivia Newton-John - I Need Love
DYEAR=1992
DGENRE=Pop
TTITLE0=I Need Love [LP Version]
TTITLE1=I Need Love [Club Mix]
TTITLE2=I Need Love [A Deep Need For Love Mix]
TTITLE3=The Rumour [Shep Pettibone 12” Extended Mix]
TTITLE4=Warm And Tender [LP Version]
EXTD=
EXTT0=
EXTT1=
EXTT2=
EXTT3=
EXTT4=
PLAYORDER=
